<mxfile host="Electron" agent="Mozilla/5.0 (Windows NT 10.0; Win64; x64) AppleWebKit/537.36 (KHTML, like Gecko) draw.io/24.7.8 Chrome/128.0.6613.36 Electron/32.0.1 Safari/537.36" version="24.7.8">
  <diagram name="Page-1" id="uprSGNIdQDGyAqxJfEuU">
    <mxGraphModel dx="2934" dy="1596" grid="1" gridSize="10" guides="1" tooltips="1" connect="1" arrows="1" fold="1" page="1" pageScale="1" pageWidth="850" pageHeight="1100" math="0" shadow="0">
      <root>
        <mxCell id="0" />
        <mxCell id="1" parent="0" />
        <mxCell id="ZkzG9JVBBhUyPk5Z_tR4-22" value="" style="rounded=0;whiteSpace=wrap;html=1;fillColor=none;dashed=1;" parent="1" vertex="1">
          <mxGeometry x="-1370" y="50" width="770" height="500" as="geometry" />
        </mxCell>
        <mxCell id="Y570fkdMcS_bk_bzoKGY-54" value="" style="rounded=0;whiteSpace=wrap;html=1;fillColor=none;dashed=1;" parent="1" vertex="1">
          <mxGeometry x="540" y="-474.5" width="181" height="349" as="geometry" />
        </mxCell>
        <mxCell id="Y570fkdMcS_bk_bzoKGY-49" value="" style="rounded=0;whiteSpace=wrap;html=1;fillColor=none;dashed=1;" parent="1" vertex="1">
          <mxGeometry x="-700" y="-550" width="1190" height="400" as="geometry" />
        </mxCell>
        <mxCell id="Y570fkdMcS_bk_bzoKGY-5" style="edgeStyle=orthogonalEdgeStyle;rounded=0;orthogonalLoop=1;jettySize=auto;html=1;" parent="1" source="Y570fkdMcS_bk_bzoKGY-2" target="Y570fkdMcS_bk_bzoKGY-4" edge="1">
          <mxGeometry relative="1" as="geometry" />
        </mxCell>
        <mxCell id="Y570fkdMcS_bk_bzoKGY-6" style="edgeStyle=orthogonalEdgeStyle;rounded=0;orthogonalLoop=1;jettySize=auto;html=1;" parent="1" source="Y570fkdMcS_bk_bzoKGY-2" target="Y570fkdMcS_bk_bzoKGY-3" edge="1">
          <mxGeometry relative="1" as="geometry" />
        </mxCell>
        <mxCell id="Y570fkdMcS_bk_bzoKGY-37" style="edgeStyle=orthogonalEdgeStyle;rounded=0;orthogonalLoop=1;jettySize=auto;html=1;" parent="1" source="Y570fkdMcS_bk_bzoKGY-2" target="Y570fkdMcS_bk_bzoKGY-30" edge="1">
          <mxGeometry relative="1" as="geometry" />
        </mxCell>
        <mxCell id="Y570fkdMcS_bk_bzoKGY-67" style="edgeStyle=orthogonalEdgeStyle;rounded=0;orthogonalLoop=1;jettySize=auto;html=1;" parent="1" source="Y570fkdMcS_bk_bzoKGY-2" target="Y570fkdMcS_bk_bzoKGY-66" edge="1">
          <mxGeometry relative="1" as="geometry" />
        </mxCell>
        <mxCell id="Y570fkdMcS_bk_bzoKGY-2" value="&lt;b&gt;Service&lt;/b&gt;&lt;div&gt;-&amp;nbsp;&lt;span style=&quot;background-color: initial;&quot;&gt;A &lt;b&gt;means &lt;/b&gt;of enabling &lt;b&gt;value co-creation&lt;/b&gt; by facilitating &lt;b&gt;outcomes that customers want to achieve&lt;/b&gt;,&lt;/span&gt;&lt;/div&gt;&lt;div&gt;&lt;b&gt;without the customer having to manage specific costs and risks&lt;/b&gt;.&lt;/div&gt;" style="rounded=1;whiteSpace=wrap;html=1;" parent="1" vertex="1">
          <mxGeometry x="120" y="210" width="410" height="110" as="geometry" />
        </mxCell>
        <mxCell id="Y570fkdMcS_bk_bzoKGY-3" value="&lt;b&gt;Utility&lt;/b&gt;&lt;div&gt;-&amp;nbsp;Utility is the &lt;b&gt;functionality offered by a product or service to meet a particular need&lt;/b&gt;&lt;/div&gt;&lt;div&gt;- &lt;b&gt;Fit for purpose&lt;/b&gt;&lt;/div&gt;&lt;div&gt;- &lt;b&gt;Supports consumer performance/ remove constraint&lt;/b&gt;&lt;/div&gt;" style="rounded=1;whiteSpace=wrap;html=1;" parent="1" vertex="1">
          <mxGeometry x="-170" y="520" width="310" height="100" as="geometry" />
        </mxCell>
        <mxCell id="sT11Tioe7LnAEhO2cBWh-1" style="edgeStyle=orthogonalEdgeStyle;rounded=0;orthogonalLoop=1;jettySize=auto;html=1;entryX=1;entryY=0.5;entryDx=0;entryDy=0;" edge="1" parent="1" source="Y570fkdMcS_bk_bzoKGY-4" target="Y570fkdMcS_bk_bzoKGY-38">
          <mxGeometry relative="1" as="geometry" />
        </mxCell>
        <mxCell id="Y570fkdMcS_bk_bzoKGY-4" value="&lt;b&gt;Value&lt;/b&gt;&lt;div&gt;- can be non monetary&lt;/div&gt;&lt;div&gt;- can be vague, immesureable&lt;/div&gt;" style="rounded=1;whiteSpace=wrap;html=1;" parent="1" vertex="1">
          <mxGeometry x="425" y="60" width="260" height="60" as="geometry" />
        </mxCell>
        <mxCell id="Y570fkdMcS_bk_bzoKGY-9" style="edgeStyle=orthogonalEdgeStyle;rounded=0;orthogonalLoop=1;jettySize=auto;html=1;" parent="1" source="Y570fkdMcS_bk_bzoKGY-7" target="Y570fkdMcS_bk_bzoKGY-2" edge="1">
          <mxGeometry relative="1" as="geometry" />
        </mxCell>
        <mxCell id="Y570fkdMcS_bk_bzoKGY-71" style="edgeStyle=orthogonalEdgeStyle;rounded=0;orthogonalLoop=1;jettySize=auto;html=1;entryX=1;entryY=0.5;entryDx=0;entryDy=0;" parent="1" source="Y570fkdMcS_bk_bzoKGY-7" target="Y570fkdMcS_bk_bzoKGY-69" edge="1">
          <mxGeometry relative="1" as="geometry" />
        </mxCell>
        <mxCell id="Y570fkdMcS_bk_bzoKGY-7" value="&lt;b&gt;Service management&lt;/b&gt;&lt;div&gt;- set of specialised organizational capabilities to enable values to customers in the form of services&lt;/div&gt;&lt;div&gt;- requires understanding of value, stakeholders, how to create the value through services&lt;/div&gt;" style="rounded=1;whiteSpace=wrap;html=1;" parent="1" vertex="1">
          <mxGeometry x="-450" y="210" width="310" height="110" as="geometry" />
        </mxCell>
        <mxCell id="Y570fkdMcS_bk_bzoKGY-11" style="edgeStyle=orthogonalEdgeStyle;rounded=0;orthogonalLoop=1;jettySize=auto;html=1;" parent="1" source="Y570fkdMcS_bk_bzoKGY-10" target="Y570fkdMcS_bk_bzoKGY-7" edge="1">
          <mxGeometry relative="1" as="geometry" />
        </mxCell>
        <mxCell id="Y570fkdMcS_bk_bzoKGY-10" value="&lt;b&gt;Organization&lt;/b&gt;&lt;div&gt;- single person / team with common objectives (and its own functions and responsibilities), relationshps and authorities&lt;/div&gt;" style="rounded=1;whiteSpace=wrap;html=1;" parent="1" vertex="1">
          <mxGeometry x="-410" y="20" width="340" height="120" as="geometry" />
        </mxCell>
        <mxCell id="Y570fkdMcS_bk_bzoKGY-15" style="edgeStyle=orthogonalEdgeStyle;rounded=0;orthogonalLoop=1;jettySize=auto;html=1;" parent="1" source="Y570fkdMcS_bk_bzoKGY-12" target="Y570fkdMcS_bk_bzoKGY-13" edge="1">
          <mxGeometry relative="1" as="geometry" />
        </mxCell>
        <mxCell id="Y570fkdMcS_bk_bzoKGY-16" style="edgeStyle=orthogonalEdgeStyle;rounded=0;orthogonalLoop=1;jettySize=auto;html=1;entryX=0.5;entryY=0;entryDx=0;entryDy=0;" parent="1" source="Y570fkdMcS_bk_bzoKGY-12" target="Y570fkdMcS_bk_bzoKGY-14" edge="1">
          <mxGeometry relative="1" as="geometry" />
        </mxCell>
        <mxCell id="Y570fkdMcS_bk_bzoKGY-17" style="edgeStyle=orthogonalEdgeStyle;rounded=0;orthogonalLoop=1;jettySize=auto;html=1;entryX=0.5;entryY=0;entryDx=0;entryDy=0;" parent="1" source="Y570fkdMcS_bk_bzoKGY-12" target="Y570fkdMcS_bk_bzoKGY-10" edge="1">
          <mxGeometry relative="1" as="geometry" />
        </mxCell>
        <mxCell id="Y570fkdMcS_bk_bzoKGY-12" value="&lt;b&gt;Service relationships&lt;/b&gt;&lt;div&gt;- two or more organizations co-create values&lt;/div&gt;&lt;div&gt;- include consumption, provision, relationship management&lt;/div&gt;" style="rounded=1;whiteSpace=wrap;html=1;" parent="1" vertex="1">
          <mxGeometry x="-387.5" y="-520" width="295" height="110" as="geometry" />
        </mxCell>
        <mxCell id="Y570fkdMcS_bk_bzoKGY-46" style="edgeStyle=orthogonalEdgeStyle;rounded=0;orthogonalLoop=1;jettySize=auto;html=1;entryX=1;entryY=0.5;entryDx=0;entryDy=0;" parent="1" source="Y570fkdMcS_bk_bzoKGY-13" target="Y570fkdMcS_bk_bzoKGY-45" edge="1">
          <mxGeometry relative="1" as="geometry" />
        </mxCell>
        <mxCell id="Y570fkdMcS_bk_bzoKGY-13" value="Can be service consumer" style="rounded=1;whiteSpace=wrap;html=1;" parent="1" vertex="1">
          <mxGeometry x="-395" y="-330" width="120" height="60" as="geometry" />
        </mxCell>
        <mxCell id="Y570fkdMcS_bk_bzoKGY-43" style="edgeStyle=orthogonalEdgeStyle;rounded=0;orthogonalLoop=1;jettySize=auto;html=1;" parent="1" source="Y570fkdMcS_bk_bzoKGY-14" target="Y570fkdMcS_bk_bzoKGY-41" edge="1">
          <mxGeometry relative="1" as="geometry" />
        </mxCell>
        <mxCell id="Y570fkdMcS_bk_bzoKGY-14" value="Can also be service provider&lt;div&gt;-&lt;span style=&quot;background-color: initial;&quot;&gt;When organization provision services, can be external / internal&lt;/span&gt;&lt;/div&gt;" style="rounded=1;whiteSpace=wrap;html=1;" parent="1" vertex="1">
          <mxGeometry x="-205" y="-330" width="205" height="60" as="geometry" />
        </mxCell>
        <mxCell id="Y570fkdMcS_bk_bzoKGY-25" style="edgeStyle=orthogonalEdgeStyle;rounded=0;orthogonalLoop=1;jettySize=auto;html=1;entryX=1;entryY=0.5;entryDx=0;entryDy=0;" parent="1" source="Y570fkdMcS_bk_bzoKGY-18" target="Y570fkdMcS_bk_bzoKGY-20" edge="1">
          <mxGeometry relative="1" as="geometry" />
        </mxCell>
        <mxCell id="Y570fkdMcS_bk_bzoKGY-26" style="edgeStyle=orthogonalEdgeStyle;rounded=0;orthogonalLoop=1;jettySize=auto;html=1;entryX=1;entryY=0.5;entryDx=0;entryDy=0;" parent="1" source="Y570fkdMcS_bk_bzoKGY-18" target="Y570fkdMcS_bk_bzoKGY-21" edge="1">
          <mxGeometry relative="1" as="geometry" />
        </mxCell>
        <mxCell id="Y570fkdMcS_bk_bzoKGY-27" style="edgeStyle=orthogonalEdgeStyle;rounded=0;orthogonalLoop=1;jettySize=auto;html=1;entryX=1;entryY=0.5;entryDx=0;entryDy=0;" parent="1" source="Y570fkdMcS_bk_bzoKGY-18" target="Y570fkdMcS_bk_bzoKGY-23" edge="1">
          <mxGeometry relative="1" as="geometry" />
        </mxCell>
        <mxCell id="Y570fkdMcS_bk_bzoKGY-18" value="Service consumer roles&lt;div&gt;- may conflict in value expectations&lt;/div&gt;" style="rounded=1;whiteSpace=wrap;html=1;" parent="1" vertex="1">
          <mxGeometry x="-945" y="-464" width="160" height="60" as="geometry" />
        </mxCell>
        <mxCell id="Y570fkdMcS_bk_bzoKGY-20" value="&lt;b&gt;Customers&lt;/b&gt;&lt;div&gt;- define requirements for services &amp;amp; take responsibility for outcomes&lt;/div&gt;" style="rounded=1;whiteSpace=wrap;html=1;" parent="1" vertex="1">
          <mxGeometry x="-1275" y="-564" width="250" height="60" as="geometry" />
        </mxCell>
        <mxCell id="Y570fkdMcS_bk_bzoKGY-21" value="&lt;b&gt;Users&lt;/b&gt;&lt;div&gt;- users service&lt;/div&gt;" style="rounded=1;whiteSpace=wrap;html=1;" parent="1" vertex="1">
          <mxGeometry x="-1275" y="-459" width="250" height="60" as="geometry" />
        </mxCell>
        <mxCell id="Y570fkdMcS_bk_bzoKGY-23" value="&lt;b&gt;Sponsors&lt;/b&gt;&lt;div&gt;- uauthoriseze budget for service consumption&lt;/div&gt;" style="rounded=1;whiteSpace=wrap;html=1;" parent="1" vertex="1">
          <mxGeometry x="-1275" y="-339" width="250" height="60" as="geometry" />
        </mxCell>
        <mxCell id="Y570fkdMcS_bk_bzoKGY-29" style="edgeStyle=orthogonalEdgeStyle;rounded=0;orthogonalLoop=1;jettySize=auto;html=1;entryX=0.5;entryY=1;entryDx=0;entryDy=0;" parent="1" source="Y570fkdMcS_bk_bzoKGY-28" target="Y570fkdMcS_bk_bzoKGY-4" edge="1">
          <mxGeometry relative="1" as="geometry" />
        </mxCell>
        <mxCell id="Y570fkdMcS_bk_bzoKGY-28" value="&lt;b&gt;Product&lt;/b&gt;&lt;div&gt;- &lt;b&gt;Configuration of organization&#39;s resources designed to offer value to customer&lt;/b&gt;&lt;/div&gt;&lt;div&gt;- complex, sometimes not fully visible to customers&lt;/div&gt;" style="rounded=1;whiteSpace=wrap;html=1;" parent="1" vertex="1">
          <mxGeometry x="570" y="210" width="310" height="110" as="geometry" />
        </mxCell>
        <mxCell id="Y570fkdMcS_bk_bzoKGY-34" style="edgeStyle=orthogonalEdgeStyle;rounded=0;orthogonalLoop=1;jettySize=auto;html=1;" parent="1" source="Y570fkdMcS_bk_bzoKGY-30" target="Y570fkdMcS_bk_bzoKGY-31" edge="1">
          <mxGeometry relative="1" as="geometry" />
        </mxCell>
        <mxCell id="Y570fkdMcS_bk_bzoKGY-35" style="edgeStyle=orthogonalEdgeStyle;rounded=0;orthogonalLoop=1;jettySize=auto;html=1;entryX=0;entryY=0.5;entryDx=0;entryDy=0;" parent="1" source="Y570fkdMcS_bk_bzoKGY-30" target="Y570fkdMcS_bk_bzoKGY-32" edge="1">
          <mxGeometry relative="1" as="geometry" />
        </mxCell>
        <mxCell id="Y570fkdMcS_bk_bzoKGY-36" style="edgeStyle=orthogonalEdgeStyle;rounded=0;orthogonalLoop=1;jettySize=auto;html=1;entryX=0;entryY=0.5;entryDx=0;entryDy=0;" parent="1" source="Y570fkdMcS_bk_bzoKGY-30" target="Y570fkdMcS_bk_bzoKGY-33" edge="1">
          <mxGeometry relative="1" as="geometry" />
        </mxCell>
        <mxCell id="Y570fkdMcS_bk_bzoKGY-30" value="&lt;b&gt;Service offerings&lt;/b&gt;" style="rounded=1;whiteSpace=wrap;html=1;" parent="1" vertex="1">
          <mxGeometry x="490" y="480" width="130" height="50" as="geometry" />
        </mxCell>
        <mxCell id="Y570fkdMcS_bk_bzoKGY-31" value="&lt;b&gt;Goods&lt;/b&gt;&lt;div&gt;- ownership transferred &amp;amp; resposibility on customer&lt;/div&gt;" style="rounded=1;whiteSpace=wrap;html=1;" parent="1" vertex="1">
          <mxGeometry x="705" y="400" width="160" height="80" as="geometry" />
        </mxCell>
        <mxCell id="Y570fkdMcS_bk_bzoKGY-32" value="&lt;b&gt;Access to resources&lt;/b&gt;&lt;div&gt;- grant/license with t&amp;amp;c&lt;/div&gt;" style="rounded=1;whiteSpace=wrap;html=1;" parent="1" vertex="1">
          <mxGeometry x="700" y="510" width="150" height="60" as="geometry" />
        </mxCell>
        <mxCell id="Y570fkdMcS_bk_bzoKGY-33" value="&lt;b&gt;Service actions&lt;/b&gt;&lt;div&gt;- to address consumer need, as per agreed&lt;/div&gt;" style="rounded=1;whiteSpace=wrap;html=1;" parent="1" vertex="1">
          <mxGeometry x="700" y="590" width="170" height="80" as="geometry" />
        </mxCell>
        <mxCell id="Y570fkdMcS_bk_bzoKGY-38" value="&lt;b&gt;Value co-creation&lt;/b&gt;&lt;div&gt;- requires &lt;b&gt;collaboration&lt;/b&gt;, mutually beneficial relationship&lt;/div&gt;" style="rounded=1;whiteSpace=wrap;html=1;" parent="1" vertex="1">
          <mxGeometry x="-340" y="-120" width="200" height="100" as="geometry" />
        </mxCell>
        <mxCell id="Y570fkdMcS_bk_bzoKGY-44" style="edgeStyle=orthogonalEdgeStyle;rounded=0;orthogonalLoop=1;jettySize=auto;html=1;" parent="1" source="Y570fkdMcS_bk_bzoKGY-41" target="Y570fkdMcS_bk_bzoKGY-2" edge="1">
          <mxGeometry relative="1" as="geometry" />
        </mxCell>
        <mxCell id="Y570fkdMcS_bk_bzoKGY-56" style="edgeStyle=orthogonalEdgeStyle;rounded=0;orthogonalLoop=1;jettySize=auto;html=1;" parent="1" source="Y570fkdMcS_bk_bzoKGY-41" target="Y570fkdMcS_bk_bzoKGY-54" edge="1">
          <mxGeometry relative="1" as="geometry" />
        </mxCell>
        <mxCell id="Y570fkdMcS_bk_bzoKGY-41" value="&lt;b&gt;Service provision&lt;/b&gt;&lt;div&gt;- activities performed to provide services, ensure access of resources to users&lt;/div&gt;&lt;div&gt;- fulfill service actions&lt;/div&gt;&lt;div&gt;-service level management, continual improvement&lt;/div&gt;&lt;div&gt;- &lt;b&gt;achieve consumer outcomes, undertake some risks and costs&lt;/b&gt;&lt;/div&gt;" style="rounded=1;whiteSpace=wrap;html=1;" parent="1" vertex="1">
          <mxGeometry x="50" y="-345" width="390" height="90" as="geometry" />
        </mxCell>
        <mxCell id="Y570fkdMcS_bk_bzoKGY-57" style="edgeStyle=orthogonalEdgeStyle;rounded=0;orthogonalLoop=1;jettySize=auto;html=1;entryX=1;entryY=0.5;entryDx=0;entryDy=0;" parent="1" source="Y570fkdMcS_bk_bzoKGY-45" target="Y570fkdMcS_bk_bzoKGY-18" edge="1">
          <mxGeometry relative="1" as="geometry" />
        </mxCell>
        <mxCell id="Y570fkdMcS_bk_bzoKGY-63" style="edgeStyle=orthogonalEdgeStyle;rounded=0;orthogonalLoop=1;jettySize=auto;html=1;entryX=1;entryY=0.5;entryDx=0;entryDy=0;" parent="1" source="Y570fkdMcS_bk_bzoKGY-45" target="Y570fkdMcS_bk_bzoKGY-58" edge="1">
          <mxGeometry relative="1" as="geometry" />
        </mxCell>
        <mxCell id="Y570fkdMcS_bk_bzoKGY-45" value="&lt;b&gt;Service consumption&lt;/b&gt;&lt;div&gt;- management of resources needed to user service&lt;/div&gt;&lt;div&gt;- service actions, acquiring the goods&lt;/div&gt;" style="rounded=1;whiteSpace=wrap;html=1;" parent="1" vertex="1">
          <mxGeometry x="-685" y="-345" width="240" height="90" as="geometry" />
        </mxCell>
        <mxCell id="Y570fkdMcS_bk_bzoKGY-48" value="&lt;b&gt;Service relationship management&lt;/b&gt;&lt;div&gt;- &lt;b&gt;joint activities&lt;/b&gt; to ensure &lt;b&gt;continual co-creation&lt;/b&gt;&lt;/div&gt;" style="rounded=1;whiteSpace=wrap;html=1;" parent="1" vertex="1">
          <mxGeometry x="-350" y="-250" width="230" height="90" as="geometry" />
        </mxCell>
        <mxCell id="Y570fkdMcS_bk_bzoKGY-50" value="&lt;b&gt;Service relationship model&lt;/b&gt;" style="rounded=1;whiteSpace=wrap;html=1;fillColor=#d5e8d4;strokeColor=#82b366;" parent="1" vertex="1">
          <mxGeometry x="-350" y="-600" width="230" height="70" as="geometry" />
        </mxCell>
        <mxCell id="Y570fkdMcS_bk_bzoKGY-53" style="edgeStyle=orthogonalEdgeStyle;rounded=0;orthogonalLoop=1;jettySize=auto;html=1;" parent="1" source="Y570fkdMcS_bk_bzoKGY-51" target="Y570fkdMcS_bk_bzoKGY-52" edge="1">
          <mxGeometry relative="1" as="geometry" />
        </mxCell>
        <mxCell id="Y570fkdMcS_bk_bzoKGY-51" value="&lt;b&gt;Output&lt;/b&gt;&lt;div&gt;- tangible / intangible deliverable&lt;/div&gt;" style="rounded=1;whiteSpace=wrap;html=1;" parent="1" vertex="1">
          <mxGeometry x="581" y="-449.5" width="120" height="60" as="geometry" />
        </mxCell>
        <mxCell id="Y570fkdMcS_bk_bzoKGY-65" style="edgeStyle=orthogonalEdgeStyle;rounded=0;orthogonalLoop=1;jettySize=auto;html=1;" parent="1" source="Y570fkdMcS_bk_bzoKGY-52" target="Y570fkdMcS_bk_bzoKGY-64" edge="1">
          <mxGeometry relative="1" as="geometry" />
        </mxCell>
        <mxCell id="Y570fkdMcS_bk_bzoKGY-52" value="&lt;b&gt;Outcome&lt;/b&gt;&lt;div&gt;- result to stakeholder from 1 / more output&lt;/div&gt;" style="rounded=1;whiteSpace=wrap;html=1;" parent="1" vertex="1">
          <mxGeometry x="581" y="-344.5" width="120" height="60" as="geometry" />
        </mxCell>
        <mxCell id="Y570fkdMcS_bk_bzoKGY-61" style="edgeStyle=orthogonalEdgeStyle;rounded=0;orthogonalLoop=1;jettySize=auto;html=1;entryX=0.5;entryY=0;entryDx=0;entryDy=0;" parent="1" source="Y570fkdMcS_bk_bzoKGY-58" target="Y570fkdMcS_bk_bzoKGY-59" edge="1">
          <mxGeometry relative="1" as="geometry" />
        </mxCell>
        <mxCell id="Y570fkdMcS_bk_bzoKGY-62" style="edgeStyle=orthogonalEdgeStyle;rounded=0;orthogonalLoop=1;jettySize=auto;html=1;" parent="1" source="Y570fkdMcS_bk_bzoKGY-58" target="Y570fkdMcS_bk_bzoKGY-60" edge="1">
          <mxGeometry relative="1" as="geometry" />
        </mxCell>
        <mxCell id="Y570fkdMcS_bk_bzoKGY-58" value="&lt;b&gt;Costs&lt;/b&gt;&lt;div&gt;- money spent&lt;/div&gt;" style="rounded=1;whiteSpace=wrap;html=1;" parent="1" vertex="1">
          <mxGeometry x="-920" y="-235" width="120" height="60" as="geometry" />
        </mxCell>
        <mxCell id="Y570fkdMcS_bk_bzoKGY-59" value="&lt;b&gt;Imposed by service&lt;/b&gt;" style="rounded=1;whiteSpace=wrap;html=1;" parent="1" vertex="1">
          <mxGeometry x="-1000" y="-120" width="120" height="60" as="geometry" />
        </mxCell>
        <mxCell id="Y570fkdMcS_bk_bzoKGY-60" value="&lt;b&gt;Removed by service&lt;/b&gt;" style="rounded=1;whiteSpace=wrap;html=1;" parent="1" vertex="1">
          <mxGeometry x="-850" y="-120" width="120" height="60" as="geometry" />
        </mxCell>
        <mxCell id="Y570fkdMcS_bk_bzoKGY-64" value="&lt;b&gt;Risk&lt;/b&gt;&lt;div&gt;- Undesirable outcome that may or may not be positive&lt;/div&gt;&lt;div&gt;- possible harmful events&lt;/div&gt;" style="rounded=1;whiteSpace=wrap;html=1;" parent="1" vertex="1">
          <mxGeometry x="562" y="-240.5" width="159" height="95" as="geometry" />
        </mxCell>
        <mxCell id="Y570fkdMcS_bk_bzoKGY-66" value="&lt;b&gt;Warranty&lt;/b&gt;&lt;div&gt;- &lt;b&gt;Assurance &lt;/b&gt;of service &lt;b&gt;to meet agreed requirements&lt;/b&gt;&lt;/div&gt;&lt;div&gt;- &lt;b&gt;Fit for use&lt;/b&gt;&lt;/div&gt;" style="rounded=1;whiteSpace=wrap;html=1;" parent="1" vertex="1">
          <mxGeometry x="165" y="520" width="260" height="100" as="geometry" />
        </mxCell>
        <mxCell id="ZkzG9JVBBhUyPk5Z_tR4-16" style="edgeStyle=orthogonalEdgeStyle;rounded=0;orthogonalLoop=1;jettySize=auto;html=1;entryX=1;entryY=0.5;entryDx=0;entryDy=0;" parent="1" source="Y570fkdMcS_bk_bzoKGY-69" target="ZkzG9JVBBhUyPk5Z_tR4-7" edge="1">
          <mxGeometry relative="1" as="geometry" />
        </mxCell>
        <mxCell id="ZkzG9JVBBhUyPk5Z_tR4-17" style="edgeStyle=orthogonalEdgeStyle;rounded=0;orthogonalLoop=1;jettySize=auto;html=1;entryX=1;entryY=0.5;entryDx=0;entryDy=0;" parent="1" source="Y570fkdMcS_bk_bzoKGY-69" target="ZkzG9JVBBhUyPk5Z_tR4-1" edge="1">
          <mxGeometry relative="1" as="geometry" />
        </mxCell>
        <mxCell id="ZkzG9JVBBhUyPk5Z_tR4-18" style="edgeStyle=orthogonalEdgeStyle;rounded=0;orthogonalLoop=1;jettySize=auto;html=1;entryX=1;entryY=0.5;entryDx=0;entryDy=0;" parent="1" source="Y570fkdMcS_bk_bzoKGY-69" target="ZkzG9JVBBhUyPk5Z_tR4-5" edge="1">
          <mxGeometry relative="1" as="geometry" />
        </mxCell>
        <mxCell id="ZkzG9JVBBhUyPk5Z_tR4-21" style="edgeStyle=orthogonalEdgeStyle;rounded=0;orthogonalLoop=1;jettySize=auto;html=1;entryX=1;entryY=0.5;entryDx=0;entryDy=0;" parent="1" source="Y570fkdMcS_bk_bzoKGY-69" target="ZkzG9JVBBhUyPk5Z_tR4-19" edge="1">
          <mxGeometry relative="1" as="geometry" />
        </mxCell>
        <mxCell id="Y570fkdMcS_bk_bzoKGY-69" value="Four dimensions&lt;div&gt;- foundation for products &amp;amp; services, value&lt;/div&gt;" style="rounded=1;whiteSpace=wrap;html=1;fillColor=#d5e8d4;strokeColor=#82b366;" parent="1" vertex="1">
          <mxGeometry x="-670" y="235" width="120" height="60" as="geometry" />
        </mxCell>
        <mxCell id="ZkzG9JVBBhUyPk5Z_tR4-3" style="edgeStyle=orthogonalEdgeStyle;rounded=0;orthogonalLoop=1;jettySize=auto;html=1;" parent="1" source="ZkzG9JVBBhUyPk5Z_tR4-1" target="ZkzG9JVBBhUyPk5Z_tR4-2" edge="1">
          <mxGeometry relative="1" as="geometry" />
        </mxCell>
        <mxCell id="ZkzG9JVBBhUyPk5Z_tR4-1" value="&lt;b&gt;Organizations &amp;amp; people&lt;/b&gt;&lt;div&gt;- culture, org structures, staffing &amp;amp; competencies, &lt;b&gt;roles and responsibilities&lt;/b&gt;&lt;/div&gt;" style="rounded=1;whiteSpace=wrap;html=1;" parent="1" vertex="1">
          <mxGeometry x="-950" y="73.75" width="200" height="60" as="geometry" />
        </mxCell>
        <mxCell id="ZkzG9JVBBhUyPk5Z_tR4-2" value="&lt;b&gt;Culture&lt;/b&gt;&lt;div&gt;- values shared, ideas, beliefs, practices&lt;/div&gt;&lt;div&gt;- supportive: leaders that advocate, communication, trust, no silo&lt;/div&gt;&lt;div&gt;&lt;span style=&quot;color: rgba(0, 0, 0, 0); font-family: monospace; font-size: 0px; text-align: start; text-wrap: nowrap; background-color: initial;&quot;&gt;- %3CmxGraphModel%3E%3Croot%3E%3CmxCell%20id%3D%220%22%2F%3E%3CmxCell%20id%3D%221%22%20parent%3D%220%22%2F%3E%3CmxCell%20id%3D%222%22%20value%3D%22%26lt%3Bb%26gt%3BUtility%26lt%3B%2Fb%26gt%3B%26lt%3Bdiv%26gt%3B-%26amp%3Bnbsp%3BUtility%20is%20the%20%26lt%3Bb%26gt%3Bfunctionality%20offered%20by%20a%20product%20or%20service%20to%20meet%20a%20particular%20need%26lt%3B%2Fb%26gt%3B%26lt%3B%2Fdiv%26gt%3B%22%20style%3D%22rounded%3D1%3BwhiteSpace%3Dwrap%3Bhtml%3D1%3B%22%20vertex%3D%221%22%20parent%3D%221%22%3E%3CmxGeometry%20x%3D%22-140%22%20y%3D%22480%22%20width%3D%22260%22%20height%3D%22100%22%20as%3D%22geometry%22%2F%3E%3C%2FmxCell%3E%3C%2Froot%3E%3C%2FmxGraphModel%3Es&lt;/span&gt;&lt;/div&gt;" style="rounded=1;whiteSpace=wrap;html=1;" parent="1" vertex="1">
          <mxGeometry x="-1240" y="66.25" width="250" height="75" as="geometry" />
        </mxCell>
        <mxCell id="ZkzG9JVBBhUyPk5Z_tR4-5" value="&lt;b&gt;Information &amp;amp; technology&lt;/b&gt;&lt;div&gt;- include &lt;b&gt;Services managed &amp;amp; being managed&lt;/b&gt;&lt;/div&gt;&lt;div&gt;- &lt;b&gt;updated data, knowledge&lt;/b&gt;&lt;/div&gt;&lt;div&gt;- protecting, managing, disposing assets&lt;/div&gt;" style="rounded=1;whiteSpace=wrap;html=1;" parent="1" vertex="1">
          <mxGeometry x="-1020" y="178.75" width="270" height="60" as="geometry" />
        </mxCell>
        <mxCell id="ZkzG9JVBBhUyPk5Z_tR4-20" style="edgeStyle=orthogonalEdgeStyle;rounded=0;orthogonalLoop=1;jettySize=auto;html=1;" parent="1" source="ZkzG9JVBBhUyPk5Z_tR4-7" target="ZkzG9JVBBhUyPk5Z_tR4-8" edge="1">
          <mxGeometry relative="1" as="geometry" />
        </mxCell>
        <mxCell id="ZkzG9JVBBhUyPk5Z_tR4-7" value="&lt;b&gt;Partners &amp;amp; suppliers&lt;/b&gt;&lt;div&gt;- &lt;b&gt;Other organizations&lt;/b&gt;&lt;/div&gt;&lt;div&gt;- choose similar valued suppliers&lt;/div&gt;" style="rounded=1;whiteSpace=wrap;html=1;" parent="1" vertex="1">
          <mxGeometry x="-950" y="293.75" width="200" height="70" as="geometry" />
        </mxCell>
        <mxCell id="ZkzG9JVBBhUyPk5Z_tR4-12" style="edgeStyle=orthogonalEdgeStyle;rounded=0;orthogonalLoop=1;jettySize=auto;html=1;entryX=1;entryY=0.5;entryDx=0;entryDy=0;" parent="1" source="ZkzG9JVBBhUyPk5Z_tR4-8" target="ZkzG9JVBBhUyPk5Z_tR4-9" edge="1">
          <mxGeometry relative="1" as="geometry" />
        </mxCell>
        <mxCell id="ZkzG9JVBBhUyPk5Z_tR4-13" style="edgeStyle=orthogonalEdgeStyle;rounded=0;orthogonalLoop=1;jettySize=auto;html=1;entryX=1;entryY=0.5;entryDx=0;entryDy=0;" parent="1" source="ZkzG9JVBBhUyPk5Z_tR4-8" target="ZkzG9JVBBhUyPk5Z_tR4-10" edge="1">
          <mxGeometry relative="1" as="geometry" />
        </mxCell>
        <mxCell id="ZkzG9JVBBhUyPk5Z_tR4-14" style="edgeStyle=orthogonalEdgeStyle;rounded=0;orthogonalLoop=1;jettySize=auto;html=1;entryX=1;entryY=0.5;entryDx=0;entryDy=0;" parent="1" source="ZkzG9JVBBhUyPk5Z_tR4-8" target="ZkzG9JVBBhUyPk5Z_tR4-11" edge="1">
          <mxGeometry relative="1" as="geometry" />
        </mxCell>
        <mxCell id="ZkzG9JVBBhUyPk5Z_tR4-8" value="Types of cooperation" style="rounded=1;whiteSpace=wrap;html=1;" parent="1" vertex="1">
          <mxGeometry x="-1130" y="280" width="120" height="60" as="geometry" />
        </mxCell>
        <mxCell id="ZkzG9JVBBhUyPk5Z_tR4-9" value="Goods supply" style="rounded=1;whiteSpace=wrap;html=1;" parent="1" vertex="1">
          <mxGeometry x="-1310" y="210" width="120" height="60" as="geometry" />
        </mxCell>
        <mxCell id="ZkzG9JVBBhUyPk5Z_tR4-10" value="Service delivery" style="rounded=1;whiteSpace=wrap;html=1;" parent="1" vertex="1">
          <mxGeometry x="-1310" y="290" width="120" height="60" as="geometry" />
        </mxCell>
        <mxCell id="ZkzG9JVBBhUyPk5Z_tR4-11" value="Service partnetship&lt;div&gt;- can be internal&lt;/div&gt;&lt;div&gt;- shared goals, outputs and outcomes&lt;/div&gt;" style="rounded=1;whiteSpace=wrap;html=1;" parent="1" vertex="1">
          <mxGeometry x="-1350" y="380" width="160" height="60" as="geometry" />
        </mxCell>
        <mxCell id="ZkzG9JVBBhUyPk5Z_tR4-19" value="&lt;b&gt;Value streams &amp;amp; processes&lt;/b&gt;&lt;div&gt;- series of steps undeertaken to deliver products &amp;amp; services&lt;/div&gt;&lt;div&gt;- &lt;b&gt;activities, workflows, controls, procedures&lt;/b&gt;&amp;nbsp;needed to achieve objectives&lt;/div&gt;" style="rounded=1;whiteSpace=wrap;html=1;" parent="1" vertex="1">
          <mxGeometry x="-1042.5" y="410" width="315" height="100" as="geometry" />
        </mxCell>
        <mxCell id="ZkzG9JVBBhUyPk5Z_tR4-23" value="&lt;b&gt;PESTLE analysis&lt;/b&gt;&amp;nbsp;to find out external factors" style="rounded=1;whiteSpace=wrap;html=1;fillColor=#f8cecc;strokeColor=#b85450;" parent="1" vertex="1">
          <mxGeometry x="-1280" y="530" width="190" height="60" as="geometry" />
        </mxCell>
        <mxCell id="c3vWa4fA47qqKua3rzfY-2" style="edgeStyle=orthogonalEdgeStyle;rounded=0;orthogonalLoop=1;jettySize=auto;html=1;entryX=1;entryY=0.5;entryDx=0;entryDy=0;" parent="1" source="c3vWa4fA47qqKua3rzfY-1" target="Y570fkdMcS_bk_bzoKGY-4" edge="1">
          <mxGeometry relative="1" as="geometry" />
        </mxCell>
        <mxCell id="c3vWa4fA47qqKua3rzfY-1" value="&lt;b&gt;ITIL service value system&lt;/b&gt;&lt;div&gt;- components &amp;amp; activities as a system to &lt;b&gt;create value&lt;/b&gt;&lt;/div&gt;" style="rounded=1;whiteSpace=wrap;html=1;fillColor=#d5e8d4;strokeColor=#82b366;" parent="1" vertex="1">
          <mxGeometry x="1200" y="-577.25" width="240" height="105.5" as="geometry" />
        </mxCell>
        <mxCell id="c3vWa4fA47qqKua3rzfY-17" style="edgeStyle=orthogonalEdgeStyle;rounded=0;orthogonalLoop=1;jettySize=auto;html=1;" parent="1" source="c3vWa4fA47qqKua3rzfY-5" target="c3vWa4fA47qqKua3rzfY-13" edge="1">
          <mxGeometry relative="1" as="geometry" />
        </mxCell>
        <mxCell id="c3vWa4fA47qqKua3rzfY-5" value="Opportunity/demand&lt;div&gt;- input&lt;/div&gt;&lt;div&gt;- demand is specifically demanded&lt;/div&gt;&lt;div&gt;- opportunity may convert to demand&lt;/div&gt;" style="rounded=1;whiteSpace=wrap;html=1;" parent="1" vertex="1">
          <mxGeometry x="1310" y="107.5" width="210" height="60" as="geometry" />
        </mxCell>
        <mxCell id="c3vWa4fA47qqKua3rzfY-6" value="Value&lt;div&gt;- output&lt;/div&gt;" style="rounded=1;whiteSpace=wrap;html=1;" parent="1" vertex="1">
          <mxGeometry x="2330" y="107.5" width="120" height="60" as="geometry" />
        </mxCell>
        <mxCell id="c3vWa4fA47qqKua3rzfY-7" value="&lt;b&gt;Governance&lt;/b&gt;&lt;div&gt;-how organisation is&amp;nbsp;&lt;b&gt;directed and controlled&lt;br&gt;&lt;/b&gt;&lt;div&gt;- &lt;b&gt;iterative steps in EDM&lt;/b&gt;&lt;/div&gt;&lt;/div&gt;&lt;div&gt;&lt;br&gt;&lt;/div&gt;&lt;div&gt;&lt;br&gt;&lt;/div&gt;&lt;div&gt;&lt;br&gt;&lt;/div&gt;&lt;div&gt;&lt;br&gt;&lt;/div&gt;&lt;div&gt;&lt;br&gt;&lt;/div&gt;&lt;div&gt;&lt;br&gt;&lt;/div&gt;&lt;div&gt;&lt;br&gt;&lt;/div&gt;&lt;div&gt;&lt;br&gt;&lt;/div&gt;&lt;div&gt;&lt;br&gt;&lt;/div&gt;&lt;div&gt;&lt;br&gt;&lt;/div&gt;" style="rounded=1;whiteSpace=wrap;html=1;" parent="1" vertex="1">
          <mxGeometry x="1640" y="-464" width="450" height="230" as="geometry" />
        </mxCell>
        <mxCell id="c3vWa4fA47qqKua3rzfY-8" value="&lt;b&gt;Evaluate&lt;/b&gt;&lt;div&gt;- by provider &amp;amp; consumer&lt;/div&gt;&lt;div&gt;- curent state, strategies&lt;/div&gt;" style="rounded=1;whiteSpace=wrap;html=1;" parent="1" vertex="1">
          <mxGeometry x="1655" y="-399.5" width="120" height="75.5" as="geometry" />
        </mxCell>
        <mxCell id="c3vWa4fA47qqKua3rzfY-9" value="&lt;b&gt;Direct&lt;/b&gt;&lt;div&gt;- modified direction, policies, strategies&lt;/div&gt;" style="rounded=1;whiteSpace=wrap;html=1;" parent="1" vertex="1">
          <mxGeometry x="1800" y="-399.5" width="120" height="60" as="geometry" />
        </mxCell>
        <mxCell id="c3vWa4fA47qqKua3rzfY-10" value="&lt;b&gt;Monitor&lt;/b&gt;&lt;div&gt;- monitor new performance and comploance&lt;/div&gt;" style="rounded=1;whiteSpace=wrap;html=1;" parent="1" vertex="1">
          <mxGeometry x="1950" y="-399.5" width="120" height="60" as="geometry" />
        </mxCell>
        <mxCell id="c3vWa4fA47qqKua3rzfY-12" value="&lt;b&gt;Silo&lt;/b&gt;" style="rounded=1;whiteSpace=wrap;html=1;fillColor=#f8cecc;strokeColor=#b85450;" parent="1" vertex="1">
          <mxGeometry x="1805" y="-314" width="120" height="60" as="geometry" />
        </mxCell>
        <mxCell id="c3vWa4fA47qqKua3rzfY-18" style="edgeStyle=orthogonalEdgeStyle;rounded=0;orthogonalLoop=1;jettySize=auto;html=1;entryX=0;entryY=0.5;entryDx=0;entryDy=0;" parent="1" source="c3vWa4fA47qqKua3rzfY-13" target="c3vWa4fA47qqKua3rzfY-6" edge="1">
          <mxGeometry relative="1" as="geometry" />
        </mxCell>
        <mxCell id="c3vWa4fA47qqKua3rzfY-13" value="&lt;b&gt;ITIL Service value chain&lt;/b&gt;&lt;div&gt;&lt;b&gt;&lt;br&gt;&lt;/b&gt;&lt;/div&gt;&lt;div&gt;&lt;b&gt;&lt;br&gt;&lt;/b&gt;&lt;/div&gt;&lt;div&gt;&lt;b&gt;&lt;br&gt;&lt;/b&gt;&lt;/div&gt;&lt;div&gt;&lt;b&gt;&lt;br&gt;&lt;/b&gt;&lt;/div&gt;&lt;div&gt;&lt;b&gt;&lt;br&gt;&lt;/b&gt;&lt;/div&gt;&lt;div&gt;&lt;b&gt;&lt;br&gt;&lt;/b&gt;&lt;/div&gt;&lt;div&gt;&lt;b&gt;&lt;br&gt;&lt;/b&gt;&lt;/div&gt;&lt;div&gt;&lt;b&gt;&lt;br&gt;&lt;/b&gt;&lt;/div&gt;&lt;div&gt;&lt;b&gt;&lt;br&gt;&lt;/b&gt;&lt;/div&gt;&lt;div&gt;&lt;b&gt;&lt;br&gt;&lt;/b&gt;&lt;/div&gt;&lt;div&gt;&lt;b&gt;&lt;br&gt;&lt;/b&gt;&lt;/div&gt;&lt;div&gt;&lt;b&gt;&lt;br&gt;&lt;/b&gt;&lt;/div&gt;&lt;div&gt;&lt;b&gt;&lt;br&gt;&lt;/b&gt;&lt;/div&gt;&lt;div&gt;&lt;b&gt;&lt;br&gt;&lt;/b&gt;&lt;/div&gt;&lt;div&gt;&lt;b&gt;&lt;br&gt;&lt;/b&gt;&lt;/div&gt;&lt;div&gt;&lt;b&gt;&lt;br&gt;&lt;/b&gt;&lt;/div&gt;&lt;div&gt;&lt;b&gt;&lt;br&gt;&lt;/b&gt;&lt;/div&gt;" style="rounded=1;whiteSpace=wrap;html=1;" parent="1" vertex="1">
          <mxGeometry x="1650" y="-175" width="440" height="625" as="geometry" />
        </mxCell>
        <mxCell id="c3vWa4fA47qqKua3rzfY-22" style="edgeStyle=orthogonalEdgeStyle;rounded=0;orthogonalLoop=1;jettySize=auto;html=1;" parent="1" source="c3vWa4fA47qqKua3rzfY-19" target="c3vWa4fA47qqKua3rzfY-20" edge="1">
          <mxGeometry relative="1" as="geometry" />
        </mxCell>
        <mxCell id="c3vWa4fA47qqKua3rzfY-19" value="&lt;b&gt;Plan&lt;/b&gt;&lt;div&gt;-&amp;nbsp;&lt;b&gt;shared understanding of vision, current status, improvement direction &lt;/b&gt;for all 4 dimensions of products &amp;amp; services&lt;/div&gt;" style="rounded=1;whiteSpace=wrap;html=1;" parent="1" vertex="1">
          <mxGeometry x="1732.5" y="-103.12" width="275" height="60" as="geometry" />
        </mxCell>
        <mxCell id="c3vWa4fA47qqKua3rzfY-23" style="edgeStyle=orthogonalEdgeStyle;rounded=0;orthogonalLoop=1;jettySize=auto;html=1;" parent="1" source="c3vWa4fA47qqKua3rzfY-20" target="c3vWa4fA47qqKua3rzfY-21" edge="1">
          <mxGeometry relative="1" as="geometry" />
        </mxCell>
        <mxCell id="c3vWa4fA47qqKua3rzfY-20" value="&lt;b&gt;Improvement&lt;/b&gt;&lt;div&gt;- &lt;b&gt;Continual improvement,&lt;/b&gt;&amp;nbsp;in all 4 dimensions&lt;/div&gt;" style="rounded=1;whiteSpace=wrap;html=1;" parent="1" vertex="1">
          <mxGeometry x="1735" y="-10" width="270" height="60" as="geometry" />
        </mxCell>
        <mxCell id="c3vWa4fA47qqKua3rzfY-26" style="edgeStyle=orthogonalEdgeStyle;rounded=0;orthogonalLoop=1;jettySize=auto;html=1;entryX=0.5;entryY=0;entryDx=0;entryDy=0;" parent="1" source="c3vWa4fA47qqKua3rzfY-21" target="c3vWa4fA47qqKua3rzfY-24" edge="1">
          <mxGeometry relative="1" as="geometry" />
        </mxCell>
        <mxCell id="c3vWa4fA47qqKua3rzfY-21" value="&lt;b&gt;Engage&lt;/b&gt;&lt;div&gt;- &lt;b&gt;Understanding of stakeholders&lt;/b&gt;, transparency, relationship&lt;/div&gt;" style="rounded=1;whiteSpace=wrap;html=1;" parent="1" vertex="1">
          <mxGeometry x="1732.5" y="90" width="275" height="60" as="geometry" />
        </mxCell>
        <mxCell id="c3vWa4fA47qqKua3rzfY-31" style="edgeStyle=orthogonalEdgeStyle;rounded=0;orthogonalLoop=1;jettySize=auto;html=1;entryX=0.5;entryY=0;entryDx=0;entryDy=0;" parent="1" source="c3vWa4fA47qqKua3rzfY-24" target="c3vWa4fA47qqKua3rzfY-28" edge="1">
          <mxGeometry relative="1" as="geometry" />
        </mxCell>
        <mxCell id="c3vWa4fA47qqKua3rzfY-24" value="&lt;b&gt;Design &amp;amp; transition&lt;/b&gt;&lt;div&gt;- &lt;b&gt;Continually meet stakeholder expectations&lt;/b&gt;&lt;/div&gt;" style="rounded=1;whiteSpace=wrap;html=1;" parent="1" vertex="1">
          <mxGeometry x="1732.5" y="175" width="275" height="60" as="geometry" />
        </mxCell>
        <mxCell id="c3vWa4fA47qqKua3rzfY-27" value="&lt;b&gt;Service value chain&lt;/b&gt;&lt;div&gt;- has the following &lt;b&gt;iterative&amp;nbsp;&lt;/b&gt;activities&lt;/div&gt;" style="rounded=1;whiteSpace=wrap;html=1;fillColor=#d5e8d4;strokeColor=#82b366;" parent="1" vertex="1">
          <mxGeometry x="1710" y="-205.5" width="205" height="60" as="geometry" />
        </mxCell>
        <mxCell id="c3vWa4fA47qqKua3rzfY-32" style="edgeStyle=orthogonalEdgeStyle;rounded=0;orthogonalLoop=1;jettySize=auto;html=1;entryX=0.5;entryY=0;entryDx=0;entryDy=0;" parent="1" source="c3vWa4fA47qqKua3rzfY-28" target="c3vWa4fA47qqKua3rzfY-30" edge="1">
          <mxGeometry relative="1" as="geometry" />
        </mxCell>
        <mxCell id="c3vWa4fA47qqKua3rzfY-28" value="&lt;b&gt;Obtain &amp;amp; build&lt;/b&gt;&lt;div&gt;- &lt;b&gt;Components&amp;nbsp;are available when and where needed&lt;/b&gt;&lt;/div&gt;&lt;div&gt;- &lt;b&gt;Build&lt;/b&gt;: inhouse, expensive, more customize&lt;/div&gt;&lt;div&gt;- &lt;b&gt;Obtain&lt;/b&gt;: buy, fast, no customize&lt;/div&gt;" style="rounded=1;whiteSpace=wrap;html=1;" parent="1" vertex="1">
          <mxGeometry x="1732.5" y="270" width="275" height="80" as="geometry" />
        </mxCell>
        <mxCell id="c3vWa4fA47qqKua3rzfY-30" value="&lt;b&gt;Deliver &amp;amp; support&lt;/b&gt;&lt;div&gt;- Services are &lt;b&gt;delivered and supported to meet stakeholders expectations&lt;/b&gt;&lt;/div&gt;" style="rounded=1;whiteSpace=wrap;html=1;" parent="1" vertex="1">
          <mxGeometry x="1732.5" y="385" width="275" height="50" as="geometry" />
        </mxCell>
      </root>
    </mxGraphModel>
  </diagram>
</mxfile>
